<svg xmlns="http://www.w3.org/2000/svg" viewBox="0 0 48 48"><linearGradient id="jkbZQPPFXJ3qTQUro0JPCa" x1="8" x2="40" y1="35.5" y2="35.5" gradientUnits="userSpaceOnUse"><stop offset="0" stop-color="#11408a"/><stop offset="1" stop-color="#103f8f"/></linearGradient><path fill="url(#jkbZQPPFXJ3qTQUro0JPCa)" d="M40,28H8c0,0,0,10.271,0,11c0,2.209,7.163,4,16,4s16-1.791,16-4C40,38.271,40,28,40,28z"/><linearGradient id="jkbZQPPFXJ3qTQUro0JPCb" x1="8" x2="40" y1="25.5" y2="25.5" gradientUnits="userSpaceOnUse"><stop offset="0" stop-color="#1d59b3"/><stop offset="1" stop-color="#195bbc"/></linearGradient><path fill="url(#jkbZQPPFXJ3qTQUro0JPCb)" d="M40,18H8c0,0,0,10.271,0,11c0,2.209,7.163,4,16,4s16-1.791,16-4C40,28.271,40,18,40,18z"/><linearGradient id="jkbZQPPFXJ3qTQUro0JPCc" x1="8" x2="40" y1="15" y2="15" gradientUnits="userSpaceOnUse"><stop offset="0" stop-color="#3079d6"/><stop offset="1" stop-color="#297cd2"/></linearGradient><path fill="url(#jkbZQPPFXJ3qTQUro0JPCc)" d="M40,8H8c0,0,0,9.756,0,10.5c0,1.933,7.163,3.5,16,3.5s16-1.567,16-3.5C40,17.756,40,8,40,8z"/><linearGradient id="jkbZQPPFXJ3qTQUro0JPCd" x1="8" x2="40" y1="8" y2="8" gradientUnits="userSpaceOnUse"><stop offset="0" stop-color="#42a3f2"/><stop offset="1" stop-color="#42a4eb"/></linearGradient><ellipse cx="24" cy="8" fill="url(#jkbZQPPFXJ3qTQUro0JPCd)" rx="16" ry="3"/></svg>